<?xml version="1.0" standalone="no"?>
<!DOCTYPE svg PUBLIC "-//W3C//DTD SVG 20010904//EN"
 "http://www.w3.org/TR/2001/REC-SVG-20010904/DTD/svg10.dtd">
<svg version="1.0" xmlns="http://www.w3.org/2000/svg"
 width="600.000000pt" height="300.000000pt" viewBox="0 0 600.000000 300.000000"
 preserveAspectRatio="xMidYMid meet">

<g transform="translate(0.000000,300.000000) scale(0.100000,-0.100000)"
fill="#000000" stroke="none">
<path d="M2844 2970 c-353 -50 -682 -290 -839 -612 -102 -208 -137 -447 -100
-678 69 -432 390 -784 820 -900 100 -27 322 -38 445 -21 140 19 340 92 427
157 17 13 35 24 38 24 12 0 126 101 188 165 54 56 156 198 170 238 11 30 -9
10 -23 -22 -6 -16 -17 -28 -23 -26 -7 2 -36 -31 -65 -73 -30 -42 -47 -70 -38
-63 9 7 16 9 16 3 0 -14 -25 -33 -33 -25 -8 8 -47 -26 -47 -40 0 -6 12 0 28
14 l27 24 -24 -27 c-13 -15 -28 -25 -33 -22 -6 4 -29 -11 -51 -33 -63 -58
-117 -97 -177 -128 -30 -16 -49 -30 -43 -32 7 -3 26 5 42 16 16 12 33 21 38
21 4 0 -12 -14 -37 -30 -25 -16 -46 -25 -48 -20 -5 14 -23 13 -20 -1 2 -6 -4
-14 -12 -16 -13 -4 -13 -3 0 6 24 17 6 13 -66 -14 -71 -27 -184 -56 -212 -54
-9 0 22 11 69 23 47 12 112 33 145 46 81 32 195 100 188 112 -3 5 0 8 7 7 21
-5 99 54 94 69 -3 7 0 10 6 7 12 -8 90 65 83 77 -3 5 -10 6 -15 2 -5 -3 -7 -9
-4 -14 3 -4 -8 -14 -25 -22 -16 -7 -30 -19 -30 -25 0 -7 -3 -12 -7 -12 -19 3
-47 -3 -35 -8 16 -6 16 -23 -1 -23 -7 0 -22 -8 -33 -18 -11 -9 -26 -18 -34
-20 -8 -2 -44 -17 -79 -33 -35 -17 -69 -28 -77 -25 -8 3 -11 -2 -9 -13 2 -14
-1 -17 -15 -14 -10 3 -27 0 -39 -6 -18 -10 -20 -9 -14 6 5 16 4 17 -8 2 -17
-20 -161 -49 -239 -49 -70 0 -207 24 -289 51 -35 11 -76 21 -91 22 -16 1 -26
4 -24 6 2 3 -32 22 -76 43 -44 21 -80 43 -80 49 0 6 12 2 28 -9 109 -75 345
-122 516 -103 241 28 427 114 580 268 120 120 198 255 243 418 24 87 28 118
28 240 0 113 -4 157 -23 227 -58 226 -184 406 -386 556 -34 24 -60 49 -58 54
1 5 -2 7 -7 3 -11 -6 -66 18 -93 42 -9 8 -20 13 -25 10 -5 -3 -19 1 -33 10
-16 9 -18 12 -5 7 11 -4 39 -7 62 -8 23 -1 45 -4 48 -8 4 -4 14 -4 23 -1 14 4
15 3 2 -5 -8 -6 -17 -9 -21 -6 -4 2 -10 0 -14 -5 -3 -6 6 -8 21 -5 16 3 23 1
19 -6 -3 -5 0 -7 8 -4 8 3 22 -2 31 -11 9 -9 16 -12 16 -6 0 20 21 11 52 -21
18 -18 26 -25 19 -16 -12 16 -10 17 32 2 25 -8 51 -22 58 -30 6 -8 15 -14 20
-14 12 0 80 -48 102 -71 21 -23 43 -20 41 5 -1 9 1 16 5 16 12 -1 137 -180
125 -180 -3 0 4 -12 15 -26 11 -14 25 -41 31 -60 7 -20 14 -33 17 -31 7 8 -38
107 -49 107 -5 0 -7 4 -4 9 8 12 -114 184 -172 244 -152 156 -331 260 -547
317 -91 24 -318 35 -421 20z m453 -186 c-3 -3 -12 -4 -19 -1 -8 3 -5 6 6 6 11
1 17 -2 13 -5z m214 -61 c13 -15 12 -15 -8 -4 -24 12 -29 21 -14 21 5 0 15 -7
22 -17z m-493 -349 c73 -19 193 -75 243 -115 22 -17 44 -27 50 -23 7 4 9 3 6
-3 -4 -6 5 -21 20 -34 14 -13 23 -17 18 -9 -6 12 -5 12 5 3 7 -6 20 -9 29 -5
14 5 14 3 2 -11 -7 -9 -18 -14 -24 -10 -6 3 -7 1 -3 -6 4 -6 12 -9 17 -6 5 4
9 2 9 -2 0 -5 9 -14 21 -21 12 -8 18 -9 15 -3 -11 17 17 25 29 8 7 -10 18 -17
24 -17 7 0 10 -4 7 -8 -3 -5 4 -16 15 -25 10 -9 19 -14 19 -10 0 13 79 -72 80
-84 0 -7 4 -13 10 -13 5 0 16 -13 25 -29 8 -16 21 -36 29 -44 27 -27 74 -171
85 -262 13 -110 2 -189 -37 -273 -32 -67 -35 -71 -118 -158 -33 -35 -58 -67
-55 -70 3 -3 2 -4 -4 -2 -5 1 -32 -12 -58 -31 -65 -44 -177 -95 -255 -116
-111 -28 -316 -30 -412 -2 -58 16 -195 85 -217 109 -9 10 -22 18 -29 18 -8 0
-11 6 -7 17 4 10 2 14 -4 10 -11 -7 -63 46 -63 64 0 6 -4 8 -8 5 -9 -5 -32 41
-64 128 -26 73 -42 257 -27 319 6 26 9 51 6 54 -4 3 0 12 8 19 7 7 16 31 20
51 7 40 19 67 73 156 33 56 114 137 137 137 7 0 15 7 19 15 3 8 15 15 26 15
12 0 18 4 15 10 -4 6 1 7 11 3 10 -3 15 -2 12 3 -4 5 4 10 15 10 12 1 54 5 94
9 70 8 174 -5 212 -25 9 -5 47 -16 85 -25 73 -17 129 -42 186 -82 19 -14 3 6
-36 44 -114 112 -247 165 -411 164 -96 0 -168 -15 -247 -51 -268 -121 -410
-419 -335 -706 39 -151 154 -336 236 -382 14 -9 13 -10 -9 -9 -14 1 -24 5 -22
8 2 4 -25 33 -61 65 -36 33 -65 65 -65 72 0 6 -4 12 -9 12 -27 0 -143 199
-181 310 -16 48 -25 122 -25 205 1 111 7 165 18 158 6 -3 7 -1 3 5 -4 6 -1 22
6 34 7 13 11 27 10 32 -4 12 44 92 94 157 100 131 273 233 435 258 79 12 230
5 307 -15z m411 -215 c-8 -16 -13 -18 -25 -8 -12 10 -12 13 3 24 24 18 36 9
22 -16z m-1302 -426 c-3 -10 -5 -4 -5 12 0 17 2 24 5 18 2 -7 2 -21 0 -30z
m1809 -470 c-9 -16 -30 -44 -47 -63 -30 -34 -28 -28 26 53 29 43 42 50 21 10z
m-199 -228 c-27 -25 -70 -58 -95 -75 -44 -28 -45 -29 -13 -3 18 16 58 49 90
75 71 60 82 62 18 3z m-1187 15 c0 -5 -2 -10 -4 -10 -3 0 -8 5 -11 10 -3 6 -1
10 4 10 6 0 11 -4 11 -10z m1020 -74 c0 -2 -7 -7 -16 -10 -8 -3 -12 -2 -9 4 6
10 25 14 25 6z m-133 -132 c-16 -9 -36 -17 -45 -19 -9 -2 -37 -11 -62 -20 -25
-9 -40 -12 -35 -7 9 9 87 37 92 34 1 -1 15 5 30 13 16 8 33 15 38 15 6 -1 -3
-8 -18 -16z m-270 -50 c-3 -3 -12 -4 -19 -1 -8 3 -5 6 6 6 11 1 17 -2 13 -5z
m60 -10 c-3 -3 -12 -4 -19 -1 -8 3 -5 6 6 6 11 1 17 -2 13 -5z m-54 -11 c-7
-2 -19 -2 -25 0 -7 3 -2 5 12 5 14 0 19 -2 13 -5z m-60 -10 c-7 -2 -21 -2 -30
0 -10 3 -4 5 12 5 17 0 24 -2 18 -5z"/>
<path d="M2940 2015 c-96 -27 -171 -83 -224 -166 -11 -19 3 -8 41 28 72 71
137 98 238 98 93 0 165 -27 231 -88 29 -26 65 -71 80 -100 26 -47 29 -61 29
-152 0 -89 -3 -106 -27 -156 -16 -31 -49 -76 -74 -101 -46 -45 -63 -53 -184
-82 l-65 -15 54 4 c147 12 261 88 323 213 30 60 33 75 33 157 0 82 -3 97 -33
157 -79 161 -260 248 -422 203z"/>
<path d="M2709 1993 c-13 -16 -12 -17 4 -4 16 13 21 21 13 21 -2 0 -10 -8 -17
-17z"/>
<path d="M2654 1938 c-42 -47 -66 -85 -94 -148 -22 -48 -25 -70 -25 -170 0
-112 1 -117 37 -190 81 -165 226 -257 418 -265 84 -4 84 -4 20 5 -394 51 -576
460 -342 768 13 17 22 32 20 32 -2 0 -17 -15 -34 -32z"/>
<path d="M2715 1738 c-14 -18 -33 -41 -41 -51 -15 -19 -18 -80 -4 -112 7 -15
9 -9 10 25 0 46 29 121 57 152 9 10 14 18 10 18 -3 0 -17 -15 -32 -32z"/>
<path d="M2790 1720 c-44 -47 -54 -87 -35 -141 23 -63 40 -86 85 -109 40 -20
114 -27 124 -11 3 5 -14 11 -38 13 -53 6 -108 46 -127 91 -21 49 -17 122 10
157 28 39 17 39 -19 0z"/>
<path d="M3105 1697 c21 -52 19 -165 -4 -220 -10 -24 -36 -58 -57 -76 l-39
-33 40 20 c75 38 115 104 115 189 0 51 -26 119 -53 142 -16 12 -16 11 -2 -22z"/>
<path d="M3415 2169 c-4 -6 -5 -12 -2 -15 2 -3 7 2 10 11 7 17 1 20 -8 4z"/>
<path d="M3405 2740 c-3 -6 1 -7 9 -4 18 7 21 14 7 14 -6 0 -13 -4 -16 -10z"/>
<path d="M3847 2533 c-11 -10 -8 -25 3 -18 6 3 10 -1 10 -9 0 -9 5 -16 10 -16
6 0 10 -7 10 -16 0 -8 4 -13 9 -9 6 3 1 21 -10 40 -23 38 -23 38 -32 28z"/>
<path d="M4040 2255 c0 -5 5 -17 10 -25 5 -8 10 -10 10 -5 0 6 -5 17 -10 25
-5 8 -10 11 -10 5z"/>
<path d="M4061 2200 c0 -8 4 -24 9 -35 5 -13 9 -14 9 -5 0 8 -4 24 -9 35 -5
13 -9 14 -9 5z"/>
<path d="M4091 2074 c0 -11 3 -14 6 -6 3 7 2 16 -1 19 -3 4 -6 -2 -5 -13z"/>
<path d="M4102 2030 c0 -14 2 -19 5 -12 2 6 2 18 0 25 -3 6 -5 1 -5 -13z"/>
<path d="M4113 1875 c0 -44 2 -61 4 -37 2 23 2 59 0 80 -2 20 -4 1 -4 -43z"/>
<path d="M4093 1840 c0 -25 2 -35 4 -22 2 12 2 32 0 45 -2 12 -4 2 -4 -23z"/>
<path d="M4112 1770 c0 -14 2 -19 5 -12 2 6 2 18 0 25 -3 6 -5 1 -5 -13z"/>
<path d="M4081 1724 c0 -11 3 -14 6 -6 3 7 2 16 -1 19 -3 4 -6 -2 -5 -13z"/>
<path d="M4101 1719 c0 -15 -3 -42 -6 -60 l-5 -34 11 34 c5 18 8 45 6 60 l-4
26 -2 -26z"/>
<path d="M4061 1604 c0 -11 3 -14 6 -6 3 7 2 16 -1 19 -3 4 -6 -2 -5 -13z"/>
<path d="M4051 1573 c-1 -6 -4 -20 -7 -30 -5 -17 -5 -17 6 0 6 10 9 23 6 30
-3 9 -5 9 -5 0z"/>
<path d="M4066 1544 c-4 -14 -5 -28 -3 -31 3 -2 8 8 11 23 4 14 5 28 3 31 -3
2 -8 -8 -11 -23z"/>
<path d="M4046 1485 c-9 -26 -7 -32 5 -12 6 10 9 21 6 23 -2 3 -7 -2 -11 -11z"/>
<path d="M4015 1459 c-4 -6 -5 -12 -2 -15 2 -3 7 2 10 11 7 17 1 20 -8 4z"/>
<path d="M4021 1418 c-8 -23 -14 -29 -20 -20 -5 9 -11 4 -19 -15 -11 -25 -11
-26 2 -10 9 12 15 14 18 6 2 -7 12 5 22 25 10 21 16 40 13 42 -3 3 -10 -10
-16 -28z"/>
<path d="M3942 1365 c-17 -37 -14 -45 4 -12 9 16 14 31 11 33 -2 2 -9 -7 -15
-21z"/>
<path d="M3876 1265 c-15 -19 -21 -32 -13 -30 12 5 53 65 44 65 -3 0 -17 -16
-31 -35z"/>
<path d="M3795 1160 c-3 -5 -1 -10 4 -10 6 0 11 5 11 10 0 6 -2 10 -4 10 -3 0
-8 -4 -11 -10z"/>
<path d="M1524 471 c-2 -2 -4 -69 -4 -147 0 -176 2 -174 -137 -174 -133 0
-133 0 -133 180 l0 140 -65 0 -65 0 0 -160 c0 -261 3 -263 318 -268 l212 -4 0
215 0 215 -61 4 c-33 1 -63 1 -65 -1z"/>
<path d="M3352 469 c-110 -14 -136 -58 -130 -224 3 -61 10 -122 17 -136 26
-52 76 -64 271 -64 187 0 210 5 255 55 18 20 20 39 23 196 l4 173 -194 3
c-107 2 -218 0 -246 -3z m306 -187 c3 -76 1 -84 -22 -107 -24 -24 -31 -25
-134 -25 -137 0 -144 5 -150 92 -5 72 7 104 41 118 12 5 76 8 142 7 l120 -2 3
-83z"/>
<path d="M3900 472 c-6 -2 -10 -85 -10 -218 l0 -214 65 0 65 0 0 74 0 74 138
0 c75 0 143 1 150 1 8 1 12 18 12 51 l0 50 -150 0 -150 0 0 40 0 40 155 0 155
0 0 50 0 49 -210 3 c-116 2 -215 2 -220 0z"/>
<path d="M4947 462 c-19 -21 -22 -59 -7 -82 6 -10 8 -3 3 22 -3 24 -1 43 7 53
15 18 61 20 78 3 15 -15 16 -64 2 -73 -10 -6 -14 13 -11 48 1 9 -2 17 -8 17
-6 0 -8 -7 -4 -16 4 -12 1 -15 -13 -12 -10 2 -18 10 -16 16 1 7 -2 12 -8 12
-5 0 -10 -17 -10 -37 1 -36 1 -37 16 -18 15 20 15 20 30 1 11 -16 11 -22 1
-28 -8 -5 -7 -8 5 -8 20 0 38 29 38 63 0 50 -70 76 -103 39z"/>
<path d="M1760 255 l0 -215 211 0 c301 0 329 10 329 122 0 62 -21 98 -57 98
-16 1 -15 2 2 12 32 17 45 39 45 79 0 110 -24 119 -310 119 l-220 0 0 -215z
m395 85 l0 -25 -132 -3 -133 -3 0 31 0 31 133 -3 132 -3 0 -25z m3 -132 c18
-18 14 -46 -7 -58 -11 -5 -74 -10 -140 -10 l-121 0 0 40 0 40 128 0 c86 0 132
-4 140 -12z"/>
<path d="M2390 255 l0 -215 65 0 65 0 0 215 0 215 -65 0 -65 0 0 -215z"/>
<path d="M2622 403 c-2 -84 10 -140 38 -167 19 -19 35 -21 193 -26 l172 -5 -3
-25 c-2 -14 -6 -27 -9 -30 -2 -3 -63 -6 -134 -8 -110 -3 -130 -1 -135 12 -5
12 -21 16 -65 16 -56 0 -59 -1 -59 -24 0 -45 19 -77 55 -91 25 -11 78 -15 203
-15 247 0 272 12 272 135 0 40 -3 81 -6 90 -14 36 -57 45 -209 45 -152 0 -185
7 -185 40 0 19 7 20 135 20 83 0 135 -4 135 -10 0 -6 27 -10 61 -10 l62 0 -6
38 c-4 22 -17 46 -32 60 -25 21 -32 22 -254 22 l-228 0 -1 -67z"/>
<path d="M4380 420 l0 -50 90 0 90 0 0 -165 0 -165 65 0 65 0 2 163 3 162 93
3 92 3 0 49 0 50 -250 0 -250 0 0 -50z"/>
</g>
</svg>
